<svg width="32" height="36" viewBox="0 0 32 36" fill="none" xmlns="http://www.w3.org/2000/svg">
<path fill-rule="evenodd" clip-rule="evenodd" d="M28.3601 28.2313C28.3579 29.6506 27.6956 31.0363 26.4465 31.9108C25.659 32.4616 24.7699 32.7215 23.8796 32.7226C22.4603 32.72 21.0743 32.0578 20.1998 30.8094C19.6493 30.0215 19.3894 29.132 19.3883 28.2418C19.3905 26.8224 20.0528 25.4368 21.3015 24.5626C22.0894 24.0114 22.9785 23.7515 23.8691 23.7508C25.2881 23.753 26.6738 24.4153 27.5483 25.664C28.0991 26.4515 28.359 27.341 28.3601 28.2313ZM11.1503 30.8094C10.2754 32.0581 8.89013 32.72 7.47075 32.7226C6.5805 32.7215 5.691 32.4613 4.9035 31.9108C3.65438 31.0363 2.99213 29.6506 2.98988 28.2313C2.991 27.3406 3.25088 26.4515 3.80175 25.664C4.67663 24.4153 6.06188 23.753 7.48088 23.7508C8.3715 23.7519 9.261 24.0114 10.0485 24.5623C11.2976 25.4371 11.9599 26.8224 11.9618 28.2418C11.9606 29.132 11.7008 30.0215 11.1503 30.8094ZM29.9978 23.9488C28.5454 21.8743 26.22 20.7583 23.8691 20.7605C22.866 20.7598 21.852 20.9638 20.8976 21.3789L17.5005 16.5271L27.8719 1.71501L25.4224 -0.000244141L15.675 13.9205L5.928 -0.000244141L3.47813 1.71501L13.8499 16.5271L10.4528 21.3789C9.498 20.9638 8.484 20.7598 7.48088 20.7605C5.13 20.7586 2.805 21.8743 1.35225 23.9488C0.441003 25.2489 -0.000746604 26.7526 3.39553e-06 28.2313C-0.0022466 30.5829 1.11375 32.9079 3.18825 34.3603C4.48875 35.2715 5.99213 35.7136 7.47075 35.7125H7.47713C9.82613 35.7125 12.1485 34.5969 13.5994 32.5246L13.5998 32.5243C14.5106 31.2238 14.9528 29.7204 14.952 28.2418C14.9539 26.3656 14.2429 24.5071 12.9019 23.0941L15.675 19.1338L18.4481 23.0941C17.1071 24.5068 16.3965 26.3656 16.3984 28.2418C16.3973 29.7204 16.839 31.2241 17.7503 32.5243C19.2015 34.5969 21.5239 35.7125 23.8729 35.7125H23.8796C25.3579 35.7136 26.8613 35.2715 28.1618 34.3603C30.2363 32.9075 31.3523 30.5829 31.35 28.2313C31.3511 26.7526 30.909 25.2493 29.9978 23.9488Z" fill="#353532"/>
</svg>
