<svg xmlns="http://www.w3.org/2000/svg" width="80" height="114" viewBox="0 0 80 114">
    <g fill="#F2F3EE" fill-rule="evenodd">
        <path d="M69.512 61.487c-.15-.299-.25-.648-.398-.947l-.3-.45c-.099-.1-.298-.199-.348-.299 0-.05-.05-.1-.1-.1-.05-.05 0-.1 0-.149.1-.2-.298-.599-.398-.748l-.298-.45c-.05-.049-.05-.149-.1-.249-.1-.15-.15-.1-.249 0h-.05v-.05c0-.299-.149-.598-.348-.797-.1-.1-.2-.2-.299-.35-.1-.1-.299-.399-.448-.399-.05 0-.15.05-.2.05-.049 0-.049-.05-.049-.05s.05.05.05 0c.05-.05-.399-.498-.448-.498-.15-.1-.25-.25-.399-.35-.298-.249-.597-.399-.896-.598-.548-.3-1.095-.698-1.593-1.048-.498-.349-1.145-.498-1.743-.598-.548-.1-1.095-.15-1.643-.25-.498-.1-.996-.199-1.494-.249-1.045-.1-2.041-.1-3.087 0-1.493.15-2.987.449-4.331 1.147-.1-.1-.2-.25-.3-.349l-.746-1.197-.448-.598c-.15-.2-.2-.4-.349-.599-.199-.3-.398-.648-.647-.948-.2-.299-.448-.548-.597-.848-.2-.349-.498-.698-.697-1.047a6.052 6.052 0 0 0-.498-.698c-.1-.1-.15-.2-.25-.3-.05-.05-.05-.15-.099-.2-.2-.299-.448-.598-.647-.897-.25-.3-.448-.648-.697-.998-.05-.1-.648-.798-.648-.848.498-.598.946-1.147 1.345-1.795.398-.599.896-1.147 1.245-1.846.497-.648 1.045-1.496 1.692-2.145.349-.548.797-1.047 1.195-1.596.399-.548.897-1.047 1.245-1.596.1-.15.05-.15.1-.3.15-.149.348-.398.448-.548.647-1.047 1.494-2.095 2.14-3.092.3-.3.549-.649.797-.948.25-.35.648-.598.797-.998 0-.05.05-.1.05-.15.1-.298.398-.548.597-.747.2-.3.449-.599.648-.898.398-.599.796-1.247 1.294-1.846.299-.748.697-.798.847-1.396.846-1.197 1.643-2.594 2.39-3.741.348-.649 1.045-1.546 1.643-2.295.398-.548.747-.997 1.145-1.546.249-.3.348-.598.498-.898.1-.2.747-.997.448-1.496-.15-.25-.349-.499-.548-.649-.1-.1-.299-.1-.398-.199-.05-.05-.15-.05-.2-.1-.05-.05-.05-.15-.099-.2-.15-.149-.249-.249-.398-.348-.2-.15-.349-.3-.548-.4-.249-.15-.448-.299-.697-.498-.15-.1-.249-.2-.398-.25-.1-.1-.25-.1-.349-.15-.1-.05-.199-.149-.299-.249a.39.39 0 0 0-.199-.2c-.05 0-.15 0-.199-.05-.199-.049-.348-.149-.548-.248-.448-.15-.647.349-.896.598-.05.05-.15.1-.199.15-.15.15-.249.349-.398.449-.15.15-.349.299-.498.498-.25.3-.448.649-.647.998-.399.698-.747 1.397-1.195 2.095-.349.598-.747 1.147-1.146 1.746-.249.399-.498.848-.746 1.297-.3.448-.648.798-.946 1.197-.25.299-.498.648-.747.947-.2.3-.399.599-.648.898-.298.35-.498.798-.746 1.197-.349.549-.698.998-.996 1.596-.498 1.048-1.394 2.045-1.793 3.143a27.473 27.473 0 0 0-1.394 1.945 59.528 59.528 0 0 1-2.938 4.29c-.149.2-.348.349-.547.548-.2.2-.349.45-.498.699-.299.448-.598.947-.946 1.396-.1.15-.25.3-.299.45-.05.199 0 .398-.1.548-.099.1-.248.15-.348.2-.15.099-.2.199-.299.348-.15.25-.298.55-.547.749.05-.05-1.146-1.696-1.195-1.796-.697-.998-1.444-2.045-2.141-3.043-.15-.2-.3-.449-.498-.648-.15-.2-.25-.4-.448-.599-.15-.2-.3-.449-.449-.648-.298-.449-.647-.898-.946-1.347-.149-.2-.298-.449-.448-.648-.149-.2-.199-.4-.348-.599l-.05-.05s0-.05-.05-.05c-.199-.299-.398-.598-.647-.897-.2-.25-.448-.45-.448-.798v-.05h-.05a.726.726 0 0 0-.299-.45c-.249-.298-.398-.598-.547-.947-.1-.25-.15-.499-.399-.648l-.05-.05c-.1-.1-.1-.25-.149-.35-.05-.149-.15-.299-.249-.398-.15-.15-.299-.2-.398-.35-.25-.299-.448-.698-.598-1.047a4.696 4.696 0 0 0-.597-1.097c-.299-.5-.647-.998-.946-1.497 0-.05-.05-.05-.05-.1-.05-.1-.15-.199-.2-.299-.746-1.247-1.642-2.394-2.439-3.591a9.68 9.68 0 0 0-1.045-1.447c-.349-.448-.697-.798-.946-1.346-.15-.3-.3-.599-.498-.898-.1-.15-.2-.25-.3-.4-.099-.099-.148-.248-.248-.348-.299-.4-.797-.998-1.046-1.147-.298-.35-1.294.2-1.991.598-.349.2-.747.549-1.145.798-.2.15-.449.2-.648.3-.249.15-.348.299-.547.398-.1.05-.3.1-.399.25a.6.6 0 0 0-.249.25c-.1.249 0 .398-.249.548-.249.15-.199.25-.05.449.2.25.3.748.548.948.05.05.15.1.2.15.199.199.298.448.448.697.149.25.348.5.547.749.25.349.448.648.697.997.1.15.25.35.349.499.05.1.15.15.199.25.05.1.05.249.1.349.05.05.1.1.149.2.15.199.249.398.349.598.1.2.248.399.398.598.1.15.15.3.249.45.1.149.249.248.348.398.1.2.25.4.349.599.15.25.348.498.548.748.149.2.249.399.448.598.249.25.448.5.647.749.15.2.398.399.448.598.05.2.249.4.349.599.1.25.298.449.448.648.348.499.597 1.048.946 1.546.398.599.896 1.098 1.294 1.646.299.35.548.749.797 1.148.15.249.348.448.498.648.199.25.299.549.448.798.299.449.548.948.797 1.397.298.548.746 1.047 1.095 1.546.05.05.05.1.1.1.05.05.05.05.1.05.049.05.099.15.099.249.15.3.448.499.597.798.2.3.299.648.598.848.1.1.199.35.298.499.1.15.2.349.3.499.397.698.846 1.346 1.294 1.995.15.2.298.399.448.548l.299.3c.1.1.149.249.249.399.1.2.298.349.398.548.1.2.199.45.348.599.25.25.399.598.598.848.249.349.597.698.846 1.047-.547.798-1.145 1.497-1.742 2.295-.598.798-.946 1.696-1.544 2.494-1.195 1.496-2.041 3.292-3.336 4.688-1.494-.598-3.087-1.097-5.029-1.197-2.041-.1-4.132.25-6.074.948-.448.15-.847.35-1.295.549-.199.1-.448.2-.647.349-.15.1-.299.1-.448.2-.249.199-.548.299-.797.498-.149.15-.348.3-.547.4-.2.149-.399.248-.548.448-.249.2-.448.449-.697.648l-.647.649c-.2.2-.399.349-.548.598-.15.2-.299.35-.448.549-.05.1-.15.15-.2.25-.298.548-.696 1.047-.995 1.546-.2.399-.399.798-.548 1.197-.199.449-.398.947-.548 1.396-.1.35-.1.798-.249 1.148-.199.498-.248 1.047-.398 1.546-.05.25-.1.449-.15.698 0 .1-.049.798.05.748.05 0 .05-.05.1-.1.05-.149.15-.1.25 0 .049.05.148.15.148.25.05.15 0 .15-.149.2-.1.05-.299.1-.398.249-.05.15 0 .399 0 .549v.648c0 .1.05.2.1.3.05.099.199.199.099.299l-.05.05c-.15.15.1.748.15.947l.298 1.048c.05.2.15.399.2.598.05.15 0 .35.099.549.1.3.349.598.498.947.348.649.647 1.347 1.046 1.996.298.449.547.798.846 1.147.398.449.697.898 1.145 1.297.946.947 2.19 1.845 3.485 2.593.648.35 1.195.749 1.942.998 1.594.399 3.685.898 5.925.748 1.992-.1 3.934-.598 5.676-1.496.598-.3 1.195-.649 1.793-1.048.2-.15 1.643-1.047 1.543-1.247 0-.05-.05-.05-.05-.1s.25-.1.3-.1c.099-.049.199-.149.298-.249.1-.1.15-.199.25-.299.049-.05.148-.1.198-.15.1-.1 0-.199.05-.299.05-.1.1-.2.2-.25.099-.049.149.05.248 0 .1-.099.25-.298.349-.398.05-.05.547-.499.249-.499-.05 0-.05-.05-.05-.1s0-.05.05-.1.05-.1.149-.15c.15-.049.2 0 .349-.099.149-.15.248-.399.298-.598.1-.25.299-.45.399-.649.149-.25.249-.499.398-.748.249-.499.448-1.047.647-1.596.548-1.696.797-3.641.697-5.886-.15-2.494-.996-4.539-1.942-6.185-.249-.399-.497-.798-.746-1.147-.15-.2-.25-.4-.349-.599-.05-.1-.1-.15-.15-.249-.099-.15-.149-.35-.298-.499-.1-.15-.299-.25-.2-.449.15-.299.35-.548.548-.798.1-.15.15-.349.3-.548.099-.15.248-.25.298-.4.2-.299.299-.598.498-.847.597-.749 1.145-1.547 1.743-2.345l.896-1.197.448-.598c.05-.05.448-.549.398-.599.25.449.598.798.946 1.197.15.15.25.35.399.549.149.25.348.449.497.698.1.2.25.35.399.549.498.648.946 1.347 1.444 1.995a30.084 30.084 0 0 0 1.792 2.444c-.398.599-1.045 1.097-1.294 1.696-.2.399-.3.798-.598 1.147-.249.4-.498.848-.647 1.247-.1.2-.2.45-.299.649-.1.2-.15.349-.249.498 0 .05-.05.05-.05.1s-.05.1-.05.15c-.05.25-.149.449-.199.698-.05.25-.1.499-.149.798-.05.35-.15.698-.2 1.048-.049.349-.099.748-.099 1.097-.05.598 0 1.247 0 1.895 0 .25 0 .45.05.699.05.498.1.997.2 1.446.198.948.497 1.945.846 2.843.647 1.596 1.643 3.043 2.788 4.29.05-.1.15-.15.299-.15-.05.1-.15.15-.25.15.2.25.35.449.548.648.05.05.15.2.15.2.199.1.448-.2.747-.05 0 .1.05.15.05.25-.2-.05-.35-.2-.498 0-.05.05.298.348.348.398.1.1.15.2.249.25.1.1.249.15.349.25.199.149.448.298.647.448.199.15.398.3.597.399.399.2.797.449 1.195.648.548.25 1.195.4 1.843.599.348.1.746.2 1.095.3.846.199 1.693.299 2.589.398.548.05 1.494.05 2.19 0 3.635-.2 6.922-1.945 9.262-4.29 2.49-2.443 4.182-5.935 4.381-9.875-.249-2.544-.896-4.888-1.792-6.834zM62.79 13.603c-.05 0-.15-.05-.199-.05-.05 0-.05-.05-.05-.1-.05-.099.1 0 .1 0 .05.05.15.1.15.15zm-1.892-1.247c0 .05-.05.05-.1 0H60.7c-.1-.05 0-.05.1-.05 0 0 .05 0 .1.05zm-.448-.199s.05 0 .1.05 0 .1-.05.1c-.05-.05-.1-.1-.05-.15zm-.15 8.779c-.248.648-.696 1.197-1.045 1.745.249-.598.697-1.197 1.046-1.745zm-2.34-8.43c.05.05-.1.2-.149.2-.05.05-.15.2-.199.2-.05-.05 0-.15.05-.2l.15-.15s.099-.1.149-.05zm-.497.499c.05 0 0 .1 0 .1 0 .05-.05.1-.1.15l-.05.05c-.1 0 .05-.1.05-.15 0-.05.05-.1.1-.15zm0 12.47s-.05.05-.05.1l-.1.1-.1.049c-.05-.05.1-.15.1-.15.05-.1.05-.1.15-.1 0-.05 0-.05 0 0zm-.349.399c.1.1-.1.299-.249.399.1-.1.2-.25.25-.4zm-1.344-9.727c.05 0 .1 0 .15.05.049.05.049.2-.05.2-.1 0-.2-.15-.1-.25zm.05 11.423c.05.1 0 .15-.1.2-.1 0-.1-.1-.1-.2h.2zm.946-1.098c.05 0 0 .05 0 .1s-.05.05-.1.1c-.1.05-.15.25-.249.349l-.299.449c-.1.15-.15.25-.249.399-.05.05-.05.15-.1.2 0 .05-.05.05-.099.1 0 0-.05.049-.1.049 0-.15.2-.3.25-.399l.298-.449.299-.449c.05-.1.1-.15.15-.2.099-.149.099-.249.199-.249zm-1.544-7.332c.05 0 .15 0 .15.05s0 .15-.05.15c-.1 0-.15-.15-.1-.2zm-.249 10.076c.2-.1-.15-.3-.2-.15v.05c0 .05 0 .1.05.1h.15zm-.548-.948c.05.05 0 .25-.1.25-.049 0-.099-.05-.149-.05-.05-.05-.05-.2.05-.2.05-.05.15-.05.2 0zm-.348 1.895c.05-.05-.1.2-.15.2.05-.1.1-.15.15-.2zm-.05-1.297c-.05 0-.15 0-.15-.05s.05-.05.1-.05.05.05.05.1zm-.2-2.843c.1 0 .1.1.05.1-.05.05-.05-.05-.05-.05v-.05zm-.397 4.938c-.1 0-.1-.05-.1-.15h.1v.15zm-.15-4.738h.1c0 .05-.05.05-.15.05.05 0 0-.05.05-.05zm-.398-3.143s.05 0 .05.05c.1.1-.15.1-.05-.05zm-.15 3.093s.1.05.1.1-.05.1-.1.05 0-.15 0-.15zm-3.086.1c.1 0 .149 0 .149.1-.1 0-.15-.05-.15-.1zm.1 6.284c0-.1.049-.1.148-.1 0 .1-.05.15-.149.1zm.148-5.237h.05c.1-.05.05.2-.05.05-.05-.05-.05-.05 0-.05zm.15 8.48c0-.05.05-.1.1-.15 0-.05.05-.1.05-.1.049-.05.099-.1.049 0 0 .05-.05.1-.1.15 0 0-.05.1-.1.1zm.199-.599h-.05c-.05 0-.1 0-.15-.05-.049-.05.05-.15.05-.2.05-.05.1-.1.15-.1.1.1.1.3 0 .35zm.647-.598c-.1.05-.15.15-.199.249-.05.1-.1.25-.2.349-.049.05-.049.1-.099.1v-.05c0-.05 0-.05.05-.1s.05-.1.1-.2.15-.199.199-.299c.1-.1.15-.249.249-.349l.15-.15s.099-.149.149-.1c.05.05-.15.2-.15.25-.05.1-.15.2-.249.3zm.2-6.984c.05 0 0 .1 0 .1-.05.05-.15.1-.2.05 0-.05 0-.1.05-.1.05-.05.1-.05.15-.05zm.398 6.036c-.05-.05.05-.15.1-.25.05.1-.05.2-.1.25zm.15-11.722c.049 0 .149.05.149.1s0 .1-.05.15c-.05.05-.1-.05-.15-.1 0 0 0-.1.05-.15zm.099 5.537c0 .05 0 .05 0 0-.1 0-.15-.1-.1-.15.05-.05.1-.05.15 0 .05.05 0 .15-.05.15zm.448 4.24s0-.1.05-.1h.149v.1c-.1.05-.2.05-.2 0zm.348-11.173v.05c-.05.05-.1.1-.1.15-.049.049-.099.049-.099.099s0 .1-.05.1v-.1c0-.05.05-.1.1-.1.05-.05.05-.1.1-.15 0-.05.05-.1.05-.05zm-.298.498c0 .05-.05.1-.05.1l-.15.2c.1.05.1-.3.2-.3zm-.3.2v.05c0 .05-.049.1-.099.15-.1.05-.05-.05 0-.1 0-.05.05-.1.1-.1zm-.099.3s0 .099-.05.099c-.05.05-.05.1-.1.1v-.05c0-.05 0-.05.05-.1 0 .05 0 0 .1-.05-.05 0 0 0 0 0zm-.199.149c0 .1-.05.15-.05.15-.1 0 0-.05 0-.1 0 0 0-.05.05-.05zm-.15.25c.05.099-.149.199-.198.299-.05-.05.149-.2.199-.3zm-1.742 2.493c0-.05.1-.15.15-.15.05-.05.099-.15.149-.199l.299-.449c.199-.3.348-.648.597-.948.05-.05.1-.249.2-.249l-.05.1c-.05.05-.1.15-.15.2l-.299.448c-.199.3-.398.649-.597.948-.1.15-.15.25-.2.399-.05.05-.099.15-.149.2l-.05.05v-.1c0-.05.05-.05.05-.1s.05-.05.05-.1v-.05zm-.1.45c.05 0 .05.049.05.049 0 .05-.05.1-.05.1s-.05 0-.05-.05c0 0 0-.05.05-.05-.05.05-.05 0 0-.05zm-.05 1.047c.1 0 .05.1.05.15-.1 0-.1-.1-.05-.15zm0 2.743s.05.15-.05.1c-.049 0-.049-.1 0-.1h.05zm-1.244 8.23c-.1 0-.05-.15-.15-.2 0-.1.15 0 .15-.05.1 0 .05.2 0 .25zm-.05-8.679c.1 0 .15.05.15.15-.1.1-.2-.05-.15-.15zm.398 5.088h-.1c-.148-.05.05-.2.15-.15v.1c0 .05 0 .05-.05.05zm-.149-5.238c0-.15.05-.15.2-.15 0 .1-.05.15-.2.15zm.1 1.846c-.05 0 0-.15 0-.2v-.05s.1 0 .1.05c.05.05.05.05 0 .1 0 .1-.05.1-.1.1zm.547 3.342c-.199.05-.199-.25 0-.25.05.05.05.2 0 .25zm.1-7.831c.05.05-.1.2-.05.25-.1-.05 0-.15.05-.25zm-.1.299c-.1.1-.149.2-.249.3 0-.05.15-.25.25-.3zm-.199 11.323c0 .1-.199.15-.199 0 .05 0 .15-.1.2 0zm-.199-1.198c0-.05 0-.1.05-.15.05 0 .05.05.1.05 0 .1-.05.1-.15.1zm-.398-9.028c.05-.05.1-.05.15-.1.049-.05.049-.1.099-.149.05-.05.05-.1.1-.2 0-.05.05-.05.05-.1.099-.05.049.05 0 .1l-.15.15c-.1.1-.05.3-.2.4-.099.049-.149.099-.199.199 0 .05 0 .1-.05.15 0 .05-.05.05-.05 0s.05-.15.1-.2c.05-.05.05-.1.1-.15 0 0 0-.05.05-.1zm-.598 9.827c.1-.05.1.15 0 .15v-.15zm-.199-7.482h.1c.05.05 0 .15-.05.15-.05-.05-.1-.15-.05-.15zm-.548 2.943s.05 0 0 0H47.206c.05.05 0 .2-.05.2s-.1-.05-.1-.15v-.05zm-1.244 9.277c.199-.35.398-.648.647-.948-.2.4-.299.549-.647.948zm.398-7.183c.1-.05.05.15.05.15-.1 0-.1-.1-.05-.15zm-.249-3.192c.05 0 .05.05.15.05v.15c-.05.05-.15.05-.2 0 0-.15.05-.15.05-.2zm-.1.549c.05-.05.1 0 .15.05.05.05.05.15 0 .2-.05.05-.2.05-.2-.05-.05-.05 0-.1.05-.2zm0 5.437c0-.05-.1-.05-.1-.15.05-.449.598.15.1.15zm-.298-3.143c.05 0 .05.05.1.05.099.25-.2.1-.1-.05zm.05 7.831c-.1.1-.15.2-.25.25.1-.1.15-.3.25-.25zm-.598.748c.05 0 .05.05.15.05-.3.25-.35.5-.598.749.1-.3.299-.5.448-.799zM19.771 18.791s0-.1.05-.1.1.05.05.1h-.1zm1.843-5.387c-.05.05-.1 0-.1-.05 0 0 0-.1.05-.1 0 .05.05.1.05.15zm1.991 10.075v-.1s.1-.05.1 0 0 .1-.05.1c.05 0-.05.05-.05 0zm1.444 1.796c-.05.05-.05-.05-.05-.05 0-.05.05-.1.1-.05l-.05.1zm2.689 5.736c-.1.05-.1-.05-.1-.15h.1v.15zm1.842-3.142c-.05 0-.05 0-.1.05s0-.15 0-.15c.05-.1.15.05.1.1zm1.444-.898c-.1.05-.15-.05-.05-.1.05 0 .05-.05.1-.05 0 0-.05.1-.05.15zm2.888 8.779c-.05-.15-.1-.2.05-.25 0 .05.1.1.05.2-.05-.05 0 .05-.1.05zm.199 1.795h-.1v-.15c.1 0 .1.05.1.15zm.797-.698h.149c0 .05.05.05.05.15-.1-.1-.2.05-.2-.15zm.946-.05c-.15 0-.1-.15-.05-.2.1.05.05.15.05.2zM9.216 70.167c0 .05-.05.05 0 0-.05.05-.2 0-.2 0 0-.2.35-.1.2 0zm-.2-2.894c-.149-.15-.05-.399.1-.399.25 0 .299.45-.1.4zm.3-.648h-.15c-.05-.1.05-.1.05-.15.1 0 .1.05.1.15zm.298 1.047c.05-.1.15-.05.2 0-.05.15-.05-.05-.2 0zm.548 4.54c-.05 0-.1 0-.1.05-.05 0-.05-.1-.05-.15.1-.05.2-.05.15.1zm.298-6.635c-.497-.05-.497-.548-.398-.947 0-.05.1-.599.15-.599.298-.15.448.05.547.3.1.349.349 1.296-.299 1.246zm1.245-2.444c.05.05.05.1.05.15-.1.05-.05-.1-.05-.15zm-.15.549h-.149c0-.05.05-.05.05-.1h.1v.1zm-.099-3.741c0-.1 0-.1.05-.15.05 0 .05.05.1.05-.05.05-.1.1-.15.1zm.25 12.07c-.05-.05-.05-.199.049-.199.1.05.05.3-.05.2zm.348-11.471c.1-.05.1.05.15.05 0 .1-.2.05-.15-.05zm.05 6.085c-.05-.05-.1-.2-.05-.3.1 0 .15.05.199.05 0 .15-.05.25-.15.25zm.149-8.23c-.05 0 0-.1-.05-.15.1 0 .15.05.15.15h-.1zm.1 4.788c0-.1.05-.1.1-.15.099 0 0 .15.148.15-.1.05-.199.05-.249 0zm1.941-6.534c.1 0 .05.1.05.2-.1-.05-.1-.1-.05-.2zm-1.045 16.61c-.1.05-.1-.05-.15-.1 0-.05.1-.05.15-.05v.15zm.547 4.09c-.05.1-.249.1-.298 0 0-.1.1-.15.199-.15.05-.05.1.1.1.15zm.15-15.413c-.1 0-.1-.1-.05-.15.05 0 .1.05.05.15zm.398-1.247c-.05 0-.1.1-.1.1-.1.05-.199-.25.05-.25l.05.15zm9.958-5.536c.1 0 .1.05.1.15-.1 0-.15-.1-.1-.15zm-1.892-1.247c.05-.05.2 0 .15.1-.05.05 0 .15-.1.05-.05 0-.1-.1-.05-.15zm-1.394 3.69c.1 0 .15 0 .15.1-.15 0-.2 0-.15-.1zm-4.63-2.393c.05.05.248 0 .199.15-.15 0-.2-.05-.2-.15 0-.05 0 0 0 0zm0 1.147h.149c.1.2-.2.2-.2.15-.05-.15 0-.15.05-.15zm-1.245 1.945c.05.15-.1.2-.2.15 0-.1.1-.05.05-.15.05-.05.05 0 .15 0zm-.1-1.446c-.05.05-.1 0-.15 0 0-.1.15-.15.15 0zm-.15 3.69s.05-.05.1 0c0 .05-.05.15-.05.15-.05 0-.099-.1-.05-.15zm-.099.55c.15-.2.598.299.2.448-.25.05-.3-.3-.2-.449zm.05 7.73v-.448c0 .1.1.648 0 .448zm16.58 7.183c-.05.05-.199 0-.199-.1s.2-.1.2 0c.049.05 0 .1 0 .1zm-.249-.948c-.05-.15.15-.15.25-.1.099.05.497.35.149.35-.15 0-.399-.1-.399-.25zm-.398-2.294c.05-.3.398-.649.498-.898 0 .25-.398.649-.498.898zm.946-2.095c-.1.25-.1.549-.249.798-.1.2-.349.4-.498.599-.448.648-.747 1.496-1.344 2.045-.2.15-.448.299-.697.498-.399.3-.797.699-1.245.948-.249.15-.647.25-.946.4-.299.149-.598.348-.847.448-.746.3-1.991.35-2.738.3-1.295-.1-2.29-.35-3.187-.749-.348-.15-.647-.349-.946-.548-.199-.15-.348-.3-.547-.45-.15-.149-.349-.199-.548-.249-.299-.15-.448-.449-.647-.698-.399-.499-.747-1.097-1.096-1.646-.149-.25-.348-.449-.498-.698-.199-.3-.249-.699-.298-.998-.1-.35-.25-.698-.299-1.097-.05-.15-.05-.3-.1-.45-.05-.299-.1-.598-.1-.897-.049-.599 0-1.197.1-1.796.1-.449.349-.898.498-1.346.05-.2.05-.45.05-.649 0-.15.1-.25.15-.399.05-.1.05-.3.149-.399 0-.05.05-.05.05-.1.1-.1.1-.25.149-.399l.299-.449c.199-.299.398-.598.647-.897a6.722 6.722 0 0 1 1.593-1.547c1.345-.898 3.286-1.546 5.577-1.396 1.892.1 3.336.848 4.481 1.646a8.895 8.895 0 0 1 1.593 1.496c.797.948 1.494 2.245 1.743 3.741.1.648.1 1.347.249 2.045 0 .15.1.3.15.449.099.998-.4 1.746-.648 2.444zm.896 4.589c-.05.05-.199-.05-.15-.15.1-.1.2-.05.15.05.05.05.05.05 0 .1zm1.145 2.394h-.05c-.05-.05-.05-.1-.05-.15 0-.15.1-.1.15 0 0 .05 0 .15-.05.15zm-.149-3.94c0-.1.1-.1.15-.1.099 0 .149.1.05.15-.05 0-.15 0-.2-.05zm1.543 2.444c.05 0 .05.1.05.15 0 .199-.199.1-.249 0-.1-.15.1-.15.2-.15zm-.497.648c0 .05 0 .05 0 0-.1 0-.1-.05-.05-.1 0 0 .1.1.05.1zm2.49-40.252c0-.1.049-.1.049-.2.05 0 .1.1.1.15-.05.05-.1.05-.15.05zm.696 1.546c-.1-.05-.15-.1-.1-.25h.1c0 .1.1.15 0 .25zm1.345.948c-.2.05-.25-.2-.15-.25.1.05.2.15.15.25zm3.286.548h-.15c.05-.05.05-.15.15-.15v.15zm-.15-2.643s-.05-.05 0 0c-.05-.05 0-.1 0-.1s.15.05.2.05v.05h-.1c-.05-.05-.05-.05-.1 0 0-.05 0 0 0 0zm.448 1.297c-.05 0-.05-.05-.149-.05-.05-.1.05-.1.05-.15.05 0 .05.05.05 0 .1 0 .05.15.05.2zm.15-1.596c0-.15 0-.25.15-.2l.099.05c0 .05-.05.1-.05.1-.05.05-.15.1-.2.05zm2.041 30.126c.1-.05.1.2 0 .15v-.15zm-.348.45c.15.149-.15.349-.15.498-.05-.15.1-.349.15-.499zm-.25 4.838c.05 0 .05.05.05.15-.1 0-.1.099-.149.149-.05-.1.05-.2.1-.3zm-1.593.798a.152.152 0 0 1 0-.2c.05 0 .1 0 .15.05 0 .1-.05.15-.15.15zm.2-3.791c0-.05 0-.1.05-.15.099 0 .149.1.149.2-.05-.05-.1-.1-.2-.05zm.05 2.793c-.05-.05 0-.25 0-.3.05-.099.05-.199.099-.298 0-.1.2-.599.249-.55.05.05.05.1.05.15-.05.2-.1.4-.2.55-.05.05-.05.099-.099.149-.05.05 0 .15-.05.2.05.05 0 .1-.05.1zm.447.15c-.1 0-.05.05-.149 0 0-.15.2-.15.15 0zm.15 3.491c0-.1 0-.15.05-.2.05-.099.199 0 .1.05-.05.1-.1.1-.15.15zm1.045-1.995c.05.05-.05.15-.1.2-.049.1-.099.2-.198.299-.1.15-.15.449-.299.449 0-.05.05-.15.1-.2l.149-.299c.05-.1.05-.2.1-.3 0-.05.05-.099.1-.149.049 0 .099-.05.148 0zm.1 3.392c-.1 0-.1-.25-.1-.3 0-.149.05-.398.2-.448.1-.05.1.05.149.1 0 .05.1.15.1.249 0 .1-.1.15-.15.2-.1.05-.15.149-.199.199zm1.842-9.727c.1-.05 0 .2-.05.2-.05-.1.05-.15.05-.2zm-1.145 10.575c0-.1.1-.1.15-.15.05.05-.05.2-.15.15zm.349-12.12v-.05c0-.05.05-.05.05-.1s.05-.15.05-.2c-.05-.1-.15.05-.2-.05-.05-.1-.05-.2 0-.3.05-.049.1-.199.2-.099l.149.15c.05.05 0 .1 0 .2 0 .05-.05.1-.1.199 0 .05 0 .2-.15.25zm.697 1.745c0 .15-.15.35-.25.499 0-.1.15-.35.25-.499zm-.2 9.527c0-.05.1-.05.15-.05.05.1-.05.1-.05.15-.1.05 0-.1-.1-.1zm.1.948c-.05-.05 0-.1.05-.1l.05.05s.05 0 .05.05c0 0-.1.05-.15 0zm.15-8.829c-.05-.05 0-.25.05-.25s.099.05.149.1c0 .05.1.15.05.2-.05.05-.15 0-.25-.05zm18.273-6.983c-.05.1 0 .05 0 .2-.15-.05-.05-.15-.15-.25.1 0 .1.05.15.05zm-4.88-2.095c-.15 0-.199-.1-.299-.15 0 0 .25.05.3.15zm-12.497 5.237c.05-.1 0 .2-.1.2 0-.15.1-.15.1-.2zm-.399.798c.05.1-.1.25-.149.4-.05-.15.1-.3.15-.4zM48.9 76.601s-.05 0 0 0c-.15 0-.15.05-.2.05-.05 0-.1 0-.1-.05s.05-.1.1-.15c.05-.05.15-.05.2-.05h.05s.05.05 0 .05c0 .1 0 .15-.05.15zm.149-2.045c-.05.05-.15.1-.2.15-.049.05-.149.05-.248.099-.05 0-.15.05-.2.1-.099.05-.248.15-.348.25-.1.099-.199.149-.348.249-.1.05-.3.1-.399.199-.05.05-.199.25-.298.2-.15-.05.1-.3.149-.35.1-.1.249-.15.349-.249.298-.15.597-.3.796-.599v-.05h.05c.15-.05.299-.199.498-.249.05 0 .199 0 .249.05.1 0 0 .15-.05.2zm-1.792.299s0-.1.05-.1c.099-.05.05.1-.05.1.05 0 0 0 0 0zm3.037 5.187c-.1 0-.1-.25-.05-.299.1 0 .1.1.15.15.05.1-.05.05-.1.15zm.547-3.591c.05-.05.1-.05.15-.05.05.05.05.15.05.25-.05.05-.25-.05-.2-.2zm.2 3.79c.1 0 .149.05.149.15-.15 0-.2-.05-.15-.15zm11.053-6.035c-.05-.1.2-.2.25-.299 0 .1-.2.15-.25.3zm1.195-1.546c.05-.1.15-.15.2-.3.049.1-.1.25-.2.3zm1.693-4.34c-.15 1.547-.846 2.744-1.494 3.891-.697 1.147-1.643 2.095-2.54 2.843-1.294.798-2.14 1.497-4.082 1.646-3.037.2-5.377-.897-7.07-2.593a8.984 8.984 0 0 1-2.49-4.689c-.1-.549-.149-1.097-.199-1.646-.05-.549.05-.998.15-1.546.1-.499.249-.998.398-1.497.299-.897.797-1.745 1.394-2.494.05-.05.1-.1.1-.15.249-.249.448-.548.746-.797.15-.1.3-.25.449-.35l.448-.299c.05 0 .05-.05.1-.05l.746-.448c.448-.25.847-.4 1.245-.5.299-.099.597-.149.896-.199h.05c.05 0 .1-.05.2-.05.547-.15 1.094-.299 1.692-.299.498 0 1.245.05 1.942.15.15 0 .249.1.398.15.398.1.896.199 1.245.349.199.1.398.199.647.299.15.05.349.1.498.15.2.1.398.249.647.398.349.2.747.35 1.046.649.2.2.448.399.647.648l.598.748c.149.25.249.599.498.749.05.05.1-.05.199 0 .1.05.15.2.1.299-.05.15.05.3.099.449.05.2.15.399.2.598.148.4.248.798.348 1.197.149.749.199 1.597.149 2.395zm3.834-5.187c-.2-.25.15-.548.249-.748 0 .2-.1.549-.25.748zm.348-.798c-.05-.05.05-.15.05-.25.1.1-.05.2-.05.25zM28.674 103.23l-.894-.153c-.1 0-.2-.154-.249-.205-.149-.359-.348-.359-.199-.717a77.92 77.92 0 0 1 1.094-3.126c.447-1.332.944-2.716 1.391-4.048.746-2.05 1.392-4.15 2.138-6.2.1-.257.298-.257.745-.257.1 0 .994-.102 1.143.308.299.717.597 1.896.895 2.664.15.462.348.974.497 1.435.249.666.447 1.384.646 2.05.1.256.199.461.249.666.248.82.447 1.69.695 2.51.249.77.547 1.487.746 2.255.15.462.199.871.298 1.333 0 .102.1.153.1.256.05.307.05.154.099.461.05.256-.1.461-.199.512-.248.103-.547.257-.845.36-.447.153-1.043.358-1.242-.206a148.696 148.696 0 0 1-1.442-4.355c-.05-.205-.149-.308-.348-.308H31.507c-.248 0-.546-.102-.695.154-.249.41-.299.871-.448 1.332-.149.513-.248 1.025-.447 1.486-.199.461-.398.923-.597 1.435-.05.256-.347.359-.646.359zm5.07-6.968c.05-.051.05-.154.05-.308-.15-.922-.497-1.844-.746-2.818-.05-.102-.05-.461-.199-.41-.199.051-.298.461-.348.615-.099.308-.149.564-.248.871-.1.359-.249.871-.348 1.23-.05.154-.1.307-.15.512-.099.564.697.41 1.045.41.248 0 .795.154.944-.102zM16.249 96.416h-.1c-.248.102-.298.358-.447.563-.199.256-.398.513-.497.82-.1.41-.05.512-.05.871v.666c0 .718 0 1.384-.05 2.101-.05.461-.099.974-.198 1.435-.05.256-.249.256-.398.256-.348.051-.894.051-1.242.051s-.448-.153-.448-.512c0-.461-.05-.922-.1-1.384v-.973-1.281-.666c.05-.974.1-1.896.1-2.87 0-.512-.05-.973-.05-1.486 0-1.127 0-2.254-.05-3.382 0-.563.05-1.178 0-1.742-.049-.461.349-.666.746-.615.398.051.994-.051 1.193.154.299.359.299 1.178.299 1.793 0 .564-.1.36-.05.871.05.462.05 1.64.1 2.101.049.36.049.718.049 1.025 0 .103.149.154.199.103.248-.205.795-1.025 1.193-1.589.497-.717.944-1.435 1.49-2.1.448-.564.696-1.026 1.144-1.59.149-.204.298-.512.497-.665.248-.205.547-.052.745.102.299.256.696.461.746.871 0 .103-.199.41-.249.513-.298.615-.596 1.025-.894 1.537-.398.564-.845 1.076-1.243 1.64-.298.41-.497.666-.696 1.127-.1.154 0 .461.1.666.248.41.447.922.745 1.332.299.513.646 1.025.945 1.538.348.666.596 1.332.994 1.947.248.46.447.922.696 1.332.248.461.447.769.447 1.23 0 .205-.199.307-.298.358-.15.103-.2.052-.497.257a1.358 1.358 0 0 1-.845.256c-.1 0-.249-.103-.299-.205-.347-.564-.745-1.179-1.043-1.794-.348-.666-.646-1.383-.945-2.1-.348-.82-.745-1.128-1.093-1.948-.199-.05-.348-.614-.646-.614zM61.975 103.026h-.547c-.398 0-.895.153-1.044-.257-.199-.512-.1-1.076-.1-1.588v-.769-1.998c.05-2.152.05-2.716.1-4.714 0-.205.1-2.46-.149-2.511-.397-.103-.547 0-.845 0-.397-.051-1.59 0-1.988-.103-.348-.102-.298-.153-.397-.46-.05-.154 0-.462 0-.718 0-.256 0-.564.099-.82.05-.154.15-.359.248-.359.348-.05.796-.05 1.193-.05 2.038-.052 3.827 0 5.666.05.448 0 1.144-.05 1.59 0 .498 0 .448.154.548.564.05.154 0 .307.099.512.15.257 0 .462 0 .82 0 .666-.746.513-1.193.513-.447 0-.895-.052-1.342 0-.497.051-.696-.205-.696.563v3.997c-.05.82-.1 1.64-.1 2.46 0 .922 0 1.896-.049 2.818 0 .615 0 .871-.05 1.486-.149.512-.596.615-1.043.564zM46.915 94.622c.398.154 1.839 0 1.988 0 .348.051 1.69 0 2.038.103.199.102.248.205.248.41.05.41 0 .666-.05.922 0 .154 0 .359-.347.461-.398.154-1.79.051-2.187.103-.597.05-1.59-.103-1.69.153-.199.615-.248 1.179-.248 1.845 0 1.127.05 2.203 0 3.33 0 .308-.05.615-.1.923-.05.307-.149.359-.447.359-.398.05-.845 0-1.292 0-.299 0-.497-.205-.497-.564 0-1.23.05-2.408.05-3.638 0-1.691-.1-3.382-.1-5.073 0-1.076 0-1.793-.05-2.87 0-.46-.05-1.23 0-1.69v-.154c-.05-.256 0-.513.348-.615.199-.051.398-.154.646-.103.447.103.944 0 1.442.052.795 0 1.54.05 2.336.05h1.789c.348-.05.795.052 1.093.103.249.052.249.41.199.718-.05.41.1 1.332-.596 1.332-.497 0-2.038-.051-2.535-.051-.646 0-1.143 0-1.79.051-.099 0-.447.103-.447.512v1.743c0 .46-.1 1.486.199 1.588z"/>
    </g>
</svg>
